<svg id="visual" viewBox="0 0 900 600" width="900" height="600" xmlns="http://www.w3.org/2000/svg" xmlns:xlink="http://www.w3.org/1999/xlink" version="1.1"><path d="M0 211L82 211L82 241L164 241L164 151L245 151L245 217L327 217L327 139L409 139L409 157L491 157L491 175L573 175L573 217L655 217L655 103L736 103L736 169L818 169L818 97L900 97L900 259L900 0L900 0L818 0L818 0L736 0L736 0L655 0L655 0L573 0L573 0L491 0L491 0L409 0L409 0L327 0L327 0L245 0L245 0L164 0L164 0L82 0L82 0L0 0Z" fill="#4facf7"></path><path d="M0 265L82 265L82 337L164 337L164 259L245 259L245 361L327 361L327 259L409 259L409 217L491 217L491 313L573 313L573 271L655 271L655 241L736 241L736 271L818 271L818 217L900 217L900 355L900 257L900 95L818 95L818 167L736 167L736 101L655 101L655 215L573 215L573 173L491 173L491 155L409 155L409 137L327 137L327 215L245 215L245 149L164 149L164 239L82 239L82 209L0 209Z" fill="#2b9dfc"></path><path d="M0 349L82 349L82 439L164 439L164 367L245 367L245 469L327 469L327 319L409 319L409 259L491 259L491 391L573 391L573 349L655 349L655 319L736 319L736 391L818 391L818 301L900 301L900 415L900 353L900 215L818 215L818 269L736 269L736 239L655 239L655 269L573 269L573 311L491 311L491 215L409 215L409 257L327 257L327 359L245 359L245 257L164 257L164 335L82 335L82 263L0 263Z" fill="#008cff"></path><path d="M0 499L82 499L82 565L164 565L164 547L245 547L245 547L327 547L327 565L409 565L409 529L491 529L491 541L573 541L573 523L655 523L655 511L736 511L736 517L818 517L818 499L900 499L900 529L900 413L900 299L818 299L818 389L736 389L736 317L655 317L655 347L573 347L573 389L491 389L491 257L409 257L409 317L327 317L327 467L245 467L245 365L164 365L164 437L82 437L82 347L0 347Z" fill="#007aff"></path><path d="M0 601L82 601L82 601L164 601L164 601L245 601L245 601L327 601L327 601L409 601L409 601L491 601L491 601L573 601L573 601L655 601L655 601L736 601L736 601L818 601L818 601L900 601L900 601L900 527L900 497L818 497L818 515L736 515L736 509L655 509L655 521L573 521L573 539L491 539L491 527L409 527L409 563L327 563L327 545L245 545L245 545L164 545L164 563L82 563L82 497L0 497Z" fill="#0066ff"></path></svg>